<svg xmlns="http://www.w3.org/2000/svg" xmlns:xlink="http://www.w3.org/1999/xlink" version="1.1" x="0px" y="0px" viewBox="0 0 7200 9000" enable-background="new 0 0 7200 7200" xml:space="preserve"><path fill="none" stroke="#000000" stroke-width="174.1199" stroke-miterlimit="10" d="M7061.057,4950.888  c0,525.451-426.106,951.558-951.81,951.558H1087.315c-526.067,0-951.926-426.106-951.926-951.558V1514.429  c0-525.453,425.859-951.559,951.926-951.559h5021.932c525.703,0,951.81,426.106,951.81,951.559V4950.888z"/><g><path fill-rule="evenodd" clip-rule="evenodd" d="M6370.437,4414.955c29.95,285.346,72.724,580.797,113.519,874.03   c-293.104,40.798-590.289,78.516-872.549,127.449c50.293-90.474,107.483-149.636,174.045-246.519   c4.064-5.792,61.261-75.805,60.52-79.87c-1.361-23.544-175.396-139.53-200.539-158.882   c-187.727-142.117-325.165-245.9-512.883-388.635c-31.928-23.912-102.062-63.971-103.414-71.86   c-4.066-23.788,110.928-146.556,127.197-168.247c62.621-82.953,95.283-131.271,138.792-191.546   c189.696,142.242,491.062,365.958,720.206,539.382c29.332,22.186,91.822,80.612,97.247,79.993   c28.599-2.71,111.548-139.526,128.561-161.222C6290.811,4503.703,6321.504,4461.919,6370.437,4414.955z"/></g><g><path fill-rule="evenodd" clip-rule="evenodd" d="M922.763,2125.176c-29.332-285.343-70.752-580.794-110.928-874.275   c293.104-39.442,590.404-76.543,872.671-124.122c-50.417,90.103-107.481,148.898-174.786,245.778   c-4.066,5.547-61.254,75.558-60.519,79.625c1.359,23.419,174.786,140.146,199.928,159.867   c187.725,142.857,324.415,246.888,511.521,390.362c32.54,24.159,101.938,64.587,103.292,72.475   c4.066,23.419-111.547,145.939-127.817,167.633c-62.613,82.706-95.284,130.9-139.409,190.805   c-189.078-142.857-489.702-367.682-718.228-542.093c-29.333-22.062-91.829-80.981-97.372-80.242   c-28.474,2.342-111.554,139.038-128.435,160.853C1002.264,2036.799,971.696,2078.338,922.763,2125.176z"/></g><g><path fill-rule="evenodd" clip-rule="evenodd" d="M5533.505,1073.038c280.173,62.492,574.02,115.618,865.159,169.975   c-54.481,291.507-112.906,584.986-156.415,867.866c-70.134-76.174-107.489-149.267-178.604-243.067   c-4.437-5.424-52.389-82.337-56.452-83.077c-22.432-6.04-188.097,122.149-214.593,139.776   c-194.503,132.625-336.626,230.248-531.122,362.874c-33.034,22.803-93.189,76.174-101.072,75.188   c-24.161-4.067-103.664-151.608-119.315-174.412c-58.55-85.418-93.925-132.011-137.438-192.162   c195.244-134.721,503.266-349.315,740.666-511.524c30.32-20.337,105.509-61.135,106.127-66.929   c7.15-27.98-96.266-150.006-111.553-173.178C5592.673,1176.7,5562.722,1134.175,5533.505,1073.038z"/></g><g><path fill-rule="evenodd" clip-rule="evenodd" d="M1630.765,5510.358c-279.554-63.231-572.665-117.714-864.169-172.81   c55.835-290.767,115.249-584.246,159.869-867.127c69.763,76.421,107.11,149.269,177.491,244.176   c4.065,5.424,52.01,81.968,56.083,82.215c22.801,6.534,188.459-121.04,215.333-138.666   c194.874-132.381,337.36-228.892,532.599-360.532c33.281-23.172,94.171-76.544,101.567-75.188   c23.543,3.45,102.797,152.349,118.449,174.904c58.795,85.665,93.801,131.518,136.697,192.407   c-195.616,134.352-504.379,347.59-742.76,509.06c-29.951,20.46-105.387,60.89-106.74,66.314   c-6.902,27.979,96.143,150.004,111.547,173.178C1572.588,5406.574,1601.796,5448.851,1630.765,5510.358z"/></g><text x="0" y="7215" fill="#000000" font-size="5px" font-weight="bold" font-family="'Helvetica Neue', Helvetica, Arial-Unicode, Arial, Sans-serif">Created by Fiona Yeung</text><text x="0" y="7220" fill="#000000" font-size="5px" font-weight="bold" font-family="'Helvetica Neue', Helvetica, Arial-Unicode, Arial, Sans-serif">from the Noun Project</text></svg>
